# Blender v2.81 (sub 16) OBJ File: ''
# www.blender.org
mtllib recyclebin.mtl
o ObjObject.001
v -0.582247 0.064130 0.035507
v -0.582247 -0.335870 -0.264493
v -0.582247 -0.335871 0.035507
v -0.582247 0.064130 -0.064493
v -0.582247 0.164130 -0.064493
v -0.582247 0.264129 0.035507
v -0.582247 0.164129 0.035507
v -0.582247 0.264129 -0.264493
v -0.482247 0.064130 0.135507
v -0.482247 -0.035871 0.035507
v -0.482247 -0.035871 0.135507
v -0.482247 0.064130 0.035507
v -0.482247 0.164129 0.035507
v -0.482247 0.064130 -0.064493
v -0.482247 0.164130 -0.064493
v -0.182247 0.064130 0.035507
v -0.182247 -0.335870 -0.264493
v -0.182247 -0.335871 0.035507
v -0.182247 0.064130 -0.064493
v -0.182247 0.164129 0.035507
v -0.182247 0.164130 -0.064493
v -0.182247 0.264129 0.035507
v -0.182247 0.264129 -0.264493
v -0.082247 0.164129 0.135507
v -0.082247 0.064130 0.035507
v -0.082247 0.064130 0.135507
v -0.082247 0.164129 0.035507
v 0.117753 -0.235871 0.135507
v 0.117753 -0.335871 0.035507
v 0.117753 -0.335871 0.135507
v 0.117753 -0.235871 0.035507
v 0.117753 -0.135870 0.135507
v 0.117753 -0.135870 0.035507
v 0.217753 -0.235871 0.035507
v 0.217753 -0.335870 -0.264493
v 0.217753 -0.335871 0.035507
v 0.217753 -0.135870 0.035507
v 0.217753 0.064130 0.035507
v 0.217753 0.064130 -0.064493
v 0.217753 0.164129 0.035507
v 0.217753 0.164130 -0.064493
v 0.217753 0.264129 0.035507
v 0.217753 0.264129 -0.264493
v 0.317753 0.064130 0.135507
v 0.317753 -0.035871 0.035507
v 0.317753 -0.035871 0.135507
v 0.317753 0.064130 0.035507
v -0.382247 -0.035871 0.135507
v -0.382247 -0.035871 0.035507
v -0.382247 0.064130 0.135507
v -0.382247 0.064130 0.035507
v -0.282247 -0.335871 0.035507
v -0.282247 -0.335870 -0.264493
v -0.282247 0.064130 0.035507
v -0.282247 0.064130 -0.064493
v -0.282247 0.164129 0.035507
v -0.282247 0.164130 -0.064493
v -0.282247 0.264129 0.035507
v -0.282247 0.264129 -0.264493
v 0.017753 0.064130 0.135507
v 0.017753 0.064130 0.035507
v 0.017753 0.164129 0.135507
v 0.017753 0.064130 -0.064493
v 0.017753 0.164129 0.035507
v 0.017753 0.164130 -0.064493
v 0.117753 -0.335871 0.035507
v 0.117753 -0.335870 -0.264493
v 0.117753 -0.235871 0.035507
v 0.117753 -0.135870 0.035507
v 0.117753 0.064130 0.035507
v 0.117753 0.064130 -0.064493
v 0.117753 0.164130 -0.064493
v 0.117753 0.164129 0.035507
v 0.117753 0.264129 0.035507
v 0.117753 0.264129 -0.264493
v 0.217753 -0.335871 0.135507
v 0.217753 -0.335871 0.035507
v 0.217753 -0.235871 0.135507
v 0.217753 -0.235871 0.035507
v 0.217753 -0.135870 0.135507
v 0.217753 -0.135870 0.035507
v 0.417753 -0.035871 0.135507
v 0.417753 -0.035871 0.035507
v 0.417753 0.064130 0.135507
v 0.417753 0.064130 0.035507
v 0.417753 0.064130 -0.064493
v 0.417753 0.164129 0.035507
v 0.417753 0.164130 -0.064493
v 0.517753 -0.335871 0.035507
v 0.517753 -0.335870 -0.264493
v 0.517753 0.064130 0.035507
v 0.517753 0.064130 -0.064493
v 0.517753 0.164130 -0.064493
v 0.517753 0.164129 0.035507
v 0.517753 0.264129 0.035507
v 0.517753 0.264129 -0.264493
v -0.382247 -0.035871 0.135507
v -0.482247 0.064130 0.135507
v -0.482247 -0.035871 0.135507
v -0.382247 0.064130 0.135507
v 0.017753 0.064130 0.135507
v -0.082247 0.164129 0.135507
v -0.082247 0.064130 0.135507
v 0.017753 0.164129 0.135507
v 0.217753 -0.335871 0.135507
v 0.117753 -0.235871 0.135507
v 0.117753 -0.335871 0.135507
v 0.217753 -0.235871 0.135507
v 0.117753 -0.135870 0.135507
v 0.217753 -0.135870 0.135507
v 0.417753 -0.035871 0.135507
v 0.317753 0.064130 0.135507
v 0.317753 -0.035871 0.135507
v 0.417753 0.064130 0.135507
v -0.482247 -0.235871 0.035507
v -0.582247 0.064130 0.035507
v -0.582247 -0.335871 0.035507
v -0.482247 -0.135870 0.035507
v -0.482247 -0.035871 0.035507
v -0.482247 0.064130 0.035507
v -0.482247 0.164129 0.035507
v -0.582247 0.264129 0.035507
v -0.582247 0.164129 0.035507
v -0.382247 -0.235871 0.035507
v -0.382247 -0.135870 0.035507
v -0.382247 -0.035871 0.035507
v -0.382247 0.064130 0.035507
v -0.382247 0.164129 0.035507
v -0.282247 -0.335871 0.035507
v -0.282247 0.064130 0.035507
v -0.282247 0.164129 0.035507
v -0.282247 0.264129 0.035507
v -0.082247 -0.235871 0.035507
v -0.182247 0.064130 0.035507
v -0.182247 -0.335871 0.035507
v -0.082247 -0.135870 0.035507
v -0.082247 0.064130 0.035507
v -0.182247 0.164129 0.035507
v -0.082247 0.164129 0.035507
v -0.182247 0.264129 0.035507
v 0.017753 -0.235871 0.035507
v 0.017753 -0.135870 0.035507
v 0.017753 0.064130 0.035507
v 0.017753 0.164129 0.035507
v 0.117753 -0.335871 0.035507
v 0.117753 -0.235871 0.035507
v 0.117753 -0.135870 0.035507
v 0.117753 0.064130 0.035507
v 0.117753 0.164129 0.035507
v 0.117753 0.264129 0.035507
v 0.317753 -0.235871 0.035507
v 0.217753 -0.235871 0.035507
v 0.217753 -0.335871 0.035507
v 0.217753 -0.135870 0.035507
v 0.217753 0.064130 0.035507
v 0.317753 -0.135870 0.035507
v 0.317753 -0.035871 0.035507
v 0.317753 0.064130 0.035507
v 0.217753 0.164129 0.035507
v 0.317753 0.164129 0.035507
v 0.217753 0.264129 0.035507
v 0.417753 -0.235871 0.035507
v 0.417753 -0.135870 0.035507
v 0.417753 -0.035871 0.035507
v 0.417753 0.064130 0.035507
v 0.417753 0.164129 0.035507
v 0.517753 -0.335871 0.035507
v 0.517753 0.064130 0.035507
v 0.517753 0.164129 0.035507
v 0.517753 0.264129 0.035507
v -0.482247 0.064130 -0.064493
v -0.582247 0.164130 -0.064493
v -0.582247 0.064130 -0.064493
v -0.482247 0.164130 -0.064493
v 0.117753 0.064130 -0.064493
v 0.017753 0.164130 -0.064493
v 0.017753 0.064130 -0.064493
v 0.117753 0.164130 -0.064493
v 0.517753 0.064130 -0.064493
v 0.417753 0.164130 -0.064493
v 0.417753 0.064130 -0.064493
v 0.517753 0.164130 -0.064493
v 0.117753 -0.335871 0.035507
v 0.117753 -0.235871 0.035507
v 0.217753 -0.335871 0.035507
v 0.117753 -0.135870 0.035507
v 0.217753 -0.235871 0.035507
v 0.217753 -0.135870 0.035507
v -0.582247 -0.335870 -0.264493
v -0.582247 0.264129 -0.264493
v -0.282247 -0.335870 -0.264493
v -0.282247 0.264129 -0.264493
v -0.182247 -0.335870 -0.264493
v -0.182247 0.264129 -0.264493
v 0.117753 -0.335870 -0.264493
v 0.117753 0.264129 -0.264493
v 0.217753 -0.335870 -0.264493
v 0.217753 0.264129 -0.264493
v 0.517753 -0.335870 -0.264493
v 0.517753 0.264129 -0.264493
v 0.117753 -0.335871 0.035507
v 0.217753 -0.335871 0.135507
v 0.117753 -0.335871 0.135507
v 0.217753 -0.335871 0.035507
v -0.582247 -0.335870 -0.264493
v -0.282247 -0.335871 0.035507
v -0.582247 -0.335871 0.035507
v -0.282247 -0.335870 -0.264493
v -0.182247 -0.335870 -0.264493
v -0.182247 -0.335871 0.035507
v 0.117753 -0.335870 -0.264493
v 0.217753 -0.335870 -0.264493
v 0.517753 -0.335871 0.035507
v 0.517753 -0.335870 -0.264493
v -0.482247 -0.035871 0.035507
v -0.382247 -0.035871 0.135507
v -0.482247 -0.035871 0.135507
v -0.382247 -0.035871 0.035507
v 0.317753 -0.035871 0.035507
v 0.417753 -0.035871 0.135507
v 0.317753 -0.035871 0.135507
v 0.417753 -0.035871 0.035507
v -0.082247 0.064130 0.035507
v 0.017753 0.064130 0.135507
v -0.082247 0.064130 0.135507
v 0.017753 0.064130 0.035507
v -0.582247 0.164130 -0.064493
v -0.482247 0.164129 0.035507
v -0.582247 0.164129 0.035507
v -0.482247 0.164130 -0.064493
v 0.017753 0.164130 -0.064493
v 0.117753 0.164129 0.035507
v 0.017753 0.164129 0.035507
v 0.117753 0.164130 -0.064493
v 0.417753 0.164130 -0.064493
v 0.517753 0.164129 0.035507
v 0.417753 0.164129 0.035507
v 0.517753 0.164130 -0.064493
v 0.117753 -0.135870 0.135507
v 0.217753 -0.135870 0.135507
v 0.117753 -0.135870 0.035507
v 0.217753 -0.135870 0.035507
v -0.482247 0.064130 0.135507
v -0.382247 0.064130 0.135507
v -0.482247 0.064130 0.035507
v -0.382247 0.064130 0.035507
v 0.317753 0.064130 0.135507
v 0.417753 0.064130 0.135507
v 0.317753 0.064130 0.035507
v 0.417753 0.064130 0.035507
v -0.582247 0.064130 0.035507
v -0.582247 0.064130 -0.064493
v -0.482247 0.064130 -0.064493
v 0.017753 0.064130 0.035507
v 0.117753 0.064130 0.035507
v 0.017753 0.064130 -0.064493
v 0.117753 0.064130 -0.064493
v 0.517753 0.064130 0.035507
v 0.417753 0.064130 -0.064493
v 0.517753 0.064130 -0.064493
v -0.082247 0.164129 0.135507
v 0.017753 0.164129 0.135507
v -0.082247 0.164129 0.035507
v 0.017753 0.164129 0.035507
v -0.582247 0.264129 0.035507
v -0.282247 0.264129 0.035507
v -0.582247 0.264129 -0.264493
v -0.282247 0.264129 -0.264493
v -0.182247 0.264129 0.035507
v 0.117753 0.264129 0.035507
v -0.182247 0.264129 -0.264493
v 0.117753 0.264129 -0.264493
v 0.217753 0.264129 0.035507
v 0.517753 0.264129 0.035507
v 0.217753 0.264129 -0.264493
v 0.517753 0.264129 -0.264493
vt 0.919922 0.500000
vt 0.919922 0.500000
vt 0.919922 0.500000
vt 0.919922 0.500000
vt 0.919922 0.500000
vt 0.919922 0.500000
vt 0.919922 0.500000
vt 0.919922 0.500000
vt 0.958984 0.500000
vt 0.958984 0.500000
vt 0.958984 0.500000
vt 0.958984 0.500000
vt 0.958984 0.500000
vt 0.958984 0.500000
vt 0.958984 0.500000
vt 0.841797 0.500000
vt 0.841797 0.500000
vt 0.841797 0.500000
vt 0.841797 0.500000
vt 0.958984 0.500000
vt 0.958984 0.500000
vt 0.958984 0.500000
vt 0.841797 0.500000
vt 0.958984 0.500000
vt 0.841797 0.500000
vt 0.841797 0.500000
vt 0.841797 0.500000
vt 0.384766 0.500000
vt 0.384766 0.500000
vt 0.384766 0.500000
vt 0.384766 0.500000
vt 0.958984 0.500000
vt 0.958984 0.500000
vt 0.958984 0.500000
vt 0.958984 0.500000
vt 0.751953 0.500000
vt 0.751953 0.500000
vt 0.751953 0.500000
vt 0.751953 0.500000
vt 0.017578 0.500000
vt 0.017578 0.500000
vt 0.017578 0.500000
vt 0.017578 0.500000
vt 0.017578 0.500000
vt 0.017578 0.500000
vt 0.958984 0.500000
vt 0.958984 0.500000
vt 0.958984 0.500000
vt 0.017578 0.500000
vt 0.958984 0.500000
vt 0.017578 0.500000
vt 0.017578 0.500000
vt 0.017578 0.500000
vt 0.966797 0.500000
vt 0.966797 0.500000
vt 0.966797 0.500000
vt 0.966797 0.500000
vt 0.958984 0.500000
vt 0.958984 0.500000
vt 0.958984 0.500000
vt 0.958984 0.500000
vt 0.919922 0.500000
vt 0.919922 0.500000
vt 0.919922 0.500000
vt 0.919922 0.500000
vt 0.990234 0.500000
vt 0.990234 0.500000
vt 0.990234 0.500000
vt 0.919922 0.500000
vt 0.990234 0.500000
vt 0.919922 0.500000
vt 0.919922 0.500000
vt 0.919922 0.500000
vt 0.384766 0.500000
vt 0.384766 0.500000
vt 0.384766 0.500000
vt 0.384766 0.500000
vt 0.384766 0.500000
vt 0.384766 0.500000
vt 0.841797 0.500000
vt 0.841797 0.500000
vt 0.841797 0.500000
vt 0.841797 0.500000
vt 0.841797 0.500000
vt 0.841797 0.500000
vt 0.841797 0.500000
vt 0.841797 0.500000
vt 0.841797 0.500000
vt 0.841797 0.500000
vt 0.958984 0.500000
vt 0.958984 0.500000
vt 0.958984 0.500000
vt 0.958984 0.500000
vt 0.751953 0.500000
vt 0.751953 0.500000
vt 0.751953 0.500000
vt 0.751953 0.500000
vt 0.966797 0.500000
vt 0.966797 0.500000
vt 0.966797 0.500000
vt 0.966797 0.500000
vt 0.966797 0.500000
vt 0.966797 0.500000
vt 0.966797 0.500000
vt 0.017578 0.500000
vt 0.017578 0.500000
vt 0.017578 0.500000
vt 0.017578 0.500000
vt 0.017578 0.500000
vt 0.017578 0.500000
vt 0.017578 0.500000
vt 0.017578 0.500000
vt 0.958984 0.500000
vt 0.958984 0.500000
vt 0.958984 0.500000
vt 0.958984 0.500000
vt 0.384766 0.500000
vt 0.384766 0.500000
vt 0.384766 0.500000
vt 0.384766 0.500000
vt 0.958984 0.500000
vt 0.958984 0.500000
vt 0.958984 0.500000
vt 0.751953 0.500000
vt 0.751953 0.500000
vt 0.751953 0.500000
vt 0.958984 0.500000
vt 0.751953 0.500000
vt 0.966797 0.500000
vt 0.966797 0.500000
vt 0.966797 0.500000
vt 0.966797 0.500000
vt 0.919922 0.500000
vt 0.919922 0.500000
vt 0.919922 0.500000
vt 0.919922 0.500000
vt 0.919922 0.500000
vt 0.919922 0.500000
vt 0.919922 0.500000
vt 0.919922 0.500000
vt 0.919922 0.500000
vt 0.919922 0.500000
vt 0.958984 0.500000
vt 0.958984 0.500000
vt 0.958984 0.500000
vt 0.919922 0.500000
vt 0.958984 0.500000
vt 0.919922 0.500000
vt 0.958984 0.500000
vt 0.958984 0.500000
vt 0.958984 0.500000
vt 0.919922 0.500000
vt 0.958984 0.500000
vt 0.919922 0.500000
vt 0.919922 0.500000
vt 0.990234 0.500000
vt 0.990234 0.500000
vt 0.990234 0.500000
vt 0.919922 0.500000
vt 0.919922 0.500000
vt 0.990234 0.500000
vt 0.919922 0.500000
vt 0.841797 0.500000
vt 0.841797 0.500000
vt 0.841797 0.500000
vt 0.841797 0.500000
vt 0.958984 0.500000
vt 0.958984 0.500000
vt 0.958984 0.500000
vt 0.841797 0.500000
vt 0.841797 0.500000
vt 0.841797 0.500000
vt 0.841797 0.500000
vt 0.958984 0.500000
vt 0.958984 0.500000
vt 0.958984 0.500000
vt 0.958984 0.500000
vt 0.841797 0.500000
vt 0.841797 0.500000
vt 0.958984 0.500000
vt 0.841797 0.500000
vt 0.841797 0.500000
vt 0.841797 0.500000
vt 0.841797 0.500000
vt 0.841797 0.500000
vt 0.841797 0.500000
vt 0.841797 0.500000
vt 0.841797 0.500000
vt 0.017578 0.500000
vt 0.017578 0.500000
vt 0.017578 0.500000
vt 0.017578 0.500000
vt 0.017578 0.500000
vt 0.017578 0.500000
vt 0.017578 0.500000
vt 0.958984 0.500000
vt 0.958984 0.500000
vt 0.958984 0.500000
vt 0.017578 0.500000
vt 0.017578 0.500000
vt 0.017578 0.500000
vt 0.017578 0.500000
vt 0.958984 0.500000
vt 0.017578 0.500000
vt 0.958984 0.500000
vt 0.958984 0.500000
vt 0.958984 0.500000
vt 0.017578 0.500000
vt 0.958984 0.500000
vt 0.017578 0.500000
vt 0.966797 0.500000
vt 0.966797 0.500000
vt 0.966797 0.500000
vt 0.017578 0.500000
vt 0.966797 0.500000
vt 0.017578 0.500000
vt 0.017578 0.500000
vt 0.017578 0.500000
vt 0.017578 0.500000
vt 0.017578 0.500000
vt 0.919922 0.500000
vt 0.919922 0.500000
vt 0.919922 0.500000
vt 0.919922 0.500000
vt 0.841797 0.500000
vt 0.841797 0.500000
vt 0.841797 0.500000
vt 0.841797 0.500000
vt 0.017578 0.500000
vt 0.017578 0.500000
vt 0.017578 0.500000
vt 0.017578 0.500000
vt 0.958984 0.500000
vt 0.958984 0.500000
vt 0.958984 0.500000
vt 0.751953 0.500000
vt 0.751953 0.500000
vt 0.751953 0.500000
vt 0.958984 0.500000
vt 0.751953 0.500000
vt 0.919922 0.500000
vt 0.919922 0.500000
vt 0.919922 0.500000
vt 0.919922 0.500000
vt 0.841797 0.500000
vt 0.841797 0.500000
vt 0.841797 0.500000
vt 0.841797 0.500000
vt 0.017578 0.500000
vt 0.017578 0.500000
vt 0.017578 0.500000
vt 0.017578 0.500000
vt 0.958984 0.500000
vt 0.958984 0.500000
vt 0.958984 0.500000
vt 0.958984 0.500000
vt 0.919922 0.500000
vt 0.919922 0.500000
vt 0.919922 0.500000
vt 0.919922 0.500000
vt 0.841797 0.500000
vt 0.841797 0.500000
vt 0.841797 0.500000
vt 0.841797 0.500000
vt 0.017578 0.500000
vt 0.017578 0.500000
vt 0.017578 0.500000
vt 0.017578 0.500000
vt 0.958984 0.500000
vt 0.958984 0.500000
vt 0.958984 0.500000
vt 0.958984 0.500000
vt 0.966797 0.500000
vt 0.966797 0.500000
vt 0.966797 0.500000
vt 0.966797 0.500000
vt 0.384766 0.500000
vt 0.384766 0.500000
vt 0.384766 0.500000
vt 0.384766 0.500000
vt 0.919922 0.500000
vt 0.919922 0.500000
vt 0.919922 0.500000
vt 0.919922 0.500000
vt 0.841797 0.500000
vt 0.841797 0.500000
vt 0.841797 0.500000
vt 0.841797 0.500000
vt 0.017578 0.500000
vt 0.017578 0.500000
vt 0.017578 0.500000
vt 0.017578 0.500000
vt 0.751953 0.500000
vt 0.751953 0.500000
vt 0.751953 0.500000
vt 0.751953 0.500000
vt 0.958984 0.500000
vt 0.958984 0.500000
vt 0.958984 0.500000
vt 0.958984 0.500000
vt 0.966797 0.500000
vt 0.966797 0.500000
vt 0.966797 0.500000
vt 0.966797 0.500000
vt 0.919922 0.500000
vt 0.919922 0.500000
vt 0.919922 0.500000
vt 0.919922 0.500000
vt 0.841797 0.500000
vt 0.841797 0.500000
vt 0.841797 0.500000
vt 0.841797 0.500000
vt 0.017578 0.500000
vt 0.017578 0.500000
vt 0.017578 0.500000
vt 0.017578 0.500000
vt 0.384766 0.500000
vt 0.384766 0.500000
vt 0.384766 0.500000
vt 0.384766 0.500000
vt 0.919922 0.500000
vt 0.919922 0.500000
vt 0.919922 0.500000
vt 0.919922 0.500000
vt 0.841797 0.500000
vt 0.841797 0.500000
vt 0.841797 0.500000
vt 0.841797 0.500000
vt 0.017578 0.500000
vt 0.017578 0.500000
vt 0.017578 0.500000
vt 0.017578 0.500000
vn -1.0000 0.0000 0.0000
vn 1.0000 -0.0000 0.0000
vn 0.0000 -0.0000 1.0000
vn 0.0000 0.0000 -1.0000
vn 0.0000 -1.0000 -0.0000
vn 0.0000 1.0000 0.0000
usemtl palette.001
s 1
f 1/1/1 2/2/1 3/3/1
f 4/4/1 2/2/1 1/1/1
f 5/5/1 2/2/1 4/4/1
f 6/6/1 5/5/1 7/7/1
f 8/8/1 2/2/1 5/5/1
f 8/8/1 5/5/1 6/6/1
f 9/9/1 10/10/1 11/11/1
f 12/12/1 10/10/1 9/9/1
f 13/13/1 14/14/1 12/12/1
f 15/15/1 14/14/1 13/13/1
f 16/16/1 17/17/1 18/18/1
f 19/19/1 17/17/1 16/16/1
f 20/20/1 19/21/1 16/22/1
f 21/23/1 17/17/1 19/19/1
f 21/24/1 19/21/1 20/20/1
f 22/25/1 21/23/1 20/26/1
f 23/27/1 17/17/1 21/23/1
f 23/27/1 21/23/1 22/25/1
f 24/28/1 25/29/1 26/30/1
f 27/31/1 25/29/1 24/28/1
f 28/32/1 29/33/1 30/34/1
f 31/35/1 29/33/1 28/32/1
f 32/36/1 31/37/1 28/38/1
f 33/39/1 31/37/1 32/36/1
f 34/40/1 35/41/1 36/42/1
f 37/43/1 35/41/1 34/40/1
f 38/44/1 35/41/1 37/43/1
f 39/45/1 35/41/1 38/44/1
f 40/46/1 39/47/1 38/48/1
f 41/49/1 35/41/1 39/45/1
f 41/50/1 39/47/1 40/46/1
f 42/51/1 41/49/1 40/52/1
f 43/53/1 35/41/1 41/49/1
f 43/53/1 41/49/1 42/51/1
f 44/54/1 45/55/1 46/56/1
f 47/57/1 45/55/1 44/54/1
f 48/58/2 49/59/2 50/60/2
f 50/60/2 49/59/2 51/61/2
f 52/62/2 53/63/2 54/64/2
f 54/64/2 53/63/2 55/65/2
f 54/66/2 55/67/2 56/68/2
f 55/65/2 53/63/2 57/69/2
f 56/68/2 55/67/2 57/70/2
f 56/71/2 57/69/2 58/72/2
f 57/69/2 53/63/2 59/73/2
f 58/72/2 57/69/2 59/73/2
f 60/74/2 61/75/2 62/76/2
f 61/75/2 63/77/2 62/76/2
f 62/76/2 63/77/2 64/78/2
f 64/78/2 63/77/2 65/79/2
f 66/80/2 67/81/2 68/82/2
f 68/82/2 67/81/2 69/83/2
f 69/83/2 67/81/2 70/84/2
f 70/84/2 67/81/2 71/85/2
f 71/85/2 67/81/2 72/86/2
f 73/87/2 72/86/2 74/88/2
f 72/86/2 67/81/2 75/89/2
f 74/88/2 72/86/2 75/89/2
f 76/90/2 77/91/2 78/92/2
f 78/92/2 77/91/2 79/93/2
f 78/94/2 79/95/2 80/96/2
f 80/96/2 79/95/2 81/97/2
f 82/98/2 83/99/2 84/100/2
f 84/100/2 83/99/2 85/101/2
f 85/101/2 86/102/2 87/103/2
f 87/103/2 86/102/2 88/104/2
f 89/105/2 90/106/2 91/107/2
f 91/107/2 90/106/2 92/108/2
f 92/108/2 90/106/2 93/109/2
f 94/110/2 93/109/2 95/111/2
f 93/109/2 90/106/2 96/112/2
f 95/111/2 93/109/2 96/112/2
f 97/113/3 98/114/3 99/115/3
f 100/116/3 98/114/3 97/113/3
f 101/117/3 102/118/3 103/119/3
f 104/120/3 102/118/3 101/117/3
f 105/121/3 106/122/3 107/123/3
f 108/124/3 109/125/3 106/126/3
f 108/127/3 106/122/3 105/121/3
f 110/128/3 109/125/3 108/124/3
f 111/129/3 112/130/3 113/131/3
f 114/132/3 112/130/3 111/129/3
f 115/133/3 116/134/3 117/135/3
f 118/136/3 116/134/3 115/133/3
f 119/137/3 116/134/3 118/136/3
f 120/138/3 116/134/3 119/137/3
f 121/139/3 122/140/3 123/141/3
f 124/142/3 115/133/3 117/135/3
f 124/143/3 118/144/3 115/145/3
f 125/146/3 119/137/3 118/136/3
f 125/147/3 118/144/3 124/143/3
f 126/148/3 119/137/3 125/146/3
f 127/149/3 121/150/3 120/151/3
f 128/152/3 122/140/3 121/139/3
f 128/153/3 121/150/3 127/149/3
f 129/154/3 126/148/3 125/146/3
f 129/154/3 127/155/3 126/148/3
f 129/154/3 124/142/3 117/135/3
f 129/154/3 125/146/3 124/142/3
f 130/156/3 128/157/3 127/158/3
f 130/159/3 127/155/3 129/154/3
f 131/160/3 122/140/3 128/152/3
f 131/161/3 128/157/3 130/156/3
f 132/162/3 122/140/3 131/160/3
f 133/163/3 134/164/3 135/165/3
f 136/166/3 134/164/3 133/163/3
f 137/167/3 138/168/3 134/169/3
f 137/170/3 134/164/3 136/166/3
f 139/171/3 140/172/3 138/173/3
f 139/174/3 138/168/3 137/167/3
f 141/175/3 136/176/3 133/177/3
f 141/178/3 133/163/3 135/165/3
f 142/179/3 137/170/3 136/166/3
f 142/180/3 136/176/3 141/175/3
f 143/181/3 137/170/3 142/179/3
f 144/182/3 140/172/3 139/171/3
f 145/183/3 141/178/3 135/165/3
f 145/183/3 143/181/3 142/179/3
f 145/183/3 142/179/3 141/178/3
f 146/184/3 143/181/3 145/183/3
f 147/185/3 143/181/3 146/184/3
f 148/186/3 143/181/3 147/185/3
f 149/187/3 140/172/3 144/182/3
f 150/188/3 140/172/3 149/187/3
f 151/189/3 152/190/3 153/191/3
f 151/189/3 154/192/3 152/190/3
f 151/189/3 155/193/3 154/192/3
f 156/194/3 155/193/3 151/189/3
f 157/195/3 155/193/3 156/194/3
f 158/196/3 159/197/3 155/198/3
f 158/199/3 155/193/3 157/195/3
f 160/200/3 161/201/3 159/202/3
f 160/203/3 159/197/3 158/196/3
f 162/204/3 151/189/3 153/191/3
f 162/205/3 156/206/3 151/207/3
f 163/208/3 157/195/3 156/194/3
f 163/209/3 156/206/3 162/205/3
f 164/210/3 157/195/3 163/208/3
f 165/211/3 160/212/3 158/213/3
f 166/214/3 161/201/3 160/200/3
f 166/215/3 160/212/3 165/211/3
f 167/216/3 165/217/3 164/210/3
f 167/216/3 162/204/3 153/191/3
f 167/216/3 164/210/3 163/208/3
f 167/216/3 163/208/3 162/204/3
f 168/218/3 165/217/3 167/216/3
f 169/219/3 161/201/3 166/214/3
f 170/220/3 161/201/3 169/219/3
f 171/221/3 172/222/3 173/223/3
f 174/224/3 172/222/3 171/221/3
f 175/225/3 176/226/3 177/227/3
f 178/228/3 176/226/3 175/225/3
f 179/229/3 180/230/3 181/231/3
f 182/232/3 180/230/3 179/229/3
f 183/233/4 184/234/4 185/235/4
f 184/236/4 186/237/4 187/238/4
f 185/235/4 184/234/4 187/239/4
f 187/238/4 186/237/4 188/240/4
f 189/241/4 190/242/4 191/243/4
f 191/243/4 190/242/4 192/244/4
f 193/245/4 194/246/4 195/247/4
f 195/247/4 194/246/4 196/248/4
f 197/249/4 198/250/4 199/251/4
f 199/251/4 198/250/4 200/252/4
f 201/253/5 202/254/5 203/255/5
f 204/256/5 202/254/5 201/253/5
f 205/257/5 206/258/5 207/259/5
f 208/260/5 206/258/5 205/257/5
f 209/261/5 201/262/5 210/263/5
f 211/264/5 201/262/5 209/261/5
f 212/265/5 213/266/5 204/267/5
f 214/268/5 213/266/5 212/265/5
f 215/269/5 216/270/5 217/271/5
f 218/272/5 216/270/5 215/269/5
f 219/273/5 220/274/5 221/275/5
f 222/276/5 220/274/5 219/273/5
f 223/277/5 224/278/5 225/279/5
f 226/280/5 224/278/5 223/277/5
f 227/281/5 228/282/5 229/283/5
f 230/284/5 228/282/5 227/281/5
f 231/285/5 232/286/5 233/287/5
f 234/288/5 232/286/5 231/285/5
f 235/289/5 236/290/5 237/291/5
f 238/292/5 236/290/5 235/289/5
f 239/293/6 240/294/6 241/295/6
f 241/295/6 240/294/6 242/296/6
f 243/297/6 244/298/6 245/299/6
f 245/299/6 244/298/6 246/300/6
f 247/301/6 248/302/6 249/303/6
f 249/303/6 248/302/6 250/304/6
f 251/305/6 245/306/6 252/307/6
f 252/307/6 245/306/6 253/308/6
f 254/309/6 255/310/6 256/311/6
f 256/311/6 255/310/6 257/312/6
f 250/313/6 258/314/6 259/315/6
f 259/315/6 258/314/6 260/316/6
f 261/317/6 262/318/6 263/319/6
f 263/319/6 262/318/6 264/320/6
f 265/321/6 266/322/6 267/323/6
f 267/323/6 266/322/6 268/324/6
f 269/325/6 270/326/6 271/327/6
f 271/327/6 270/326/6 272/328/6
f 273/329/6 274/330/6 275/331/6
f 275/331/6 274/330/6 276/332/6
